<svg width="681" height="368" viewBox="0 0 681 368" fill="none" xmlns="http://www.w3.org/2000/svg">
<g clip-path="url(#clip0)">
<path opacity="0.1" d="M681 236.203C681.008 246.2 679.636 256.151 676.922 265.771C674.3 275.046 670.441 283.924 665.451 292.168C665.451 322.033 645.319 347.846 616.097 360.126C603.886 365.206 590.787 367.8 577.564 367.756H129.277C105.317 367.756 83.113 361.282 64.9034 350.254C59.6919 347.112 54.7482 343.545 50.1226 339.589C29.883 322.171 17.3346 298.099 17.3346 271.512C5.97551 253.996 -0.0475848 233.548 5.19064e-06 212.662C5.19064e-06 168.931 25.8292 131.327 62.8318 114.725C67.7453 112.521 72.8225 110.704 78.0174 109.288C79.8548 108.788 81.7121 108.338 83.5892 107.941C88.5932 106.874 93.6687 106.177 98.7748 105.855C100.62 105.739 102.475 105.674 104.341 105.658H105.365C107.424 105.658 109.466 105.729 111.496 105.849L112.163 104.716C112.98 103.349 113.817 101.996 114.675 100.656C116.222 98.2162 117.846 95.8119 119.544 93.4432C121.322 90.9435 123.177 88.4835 125.11 86.0632L125.604 85.4671C126.699 84.1 127.818 82.7488 128.961 81.4134C132.533 77.2445 136.303 73.2008 140.272 69.2823C183.197 27.1482 250.446 0.0244751 326.047 0.0244751C384.872 0.0244751 438.644 16.4477 479.831 43.5833C495.435 34.7408 513.061 30.101 530.99 30.1169C589.172 30.1169 636.354 78.0275 636.354 137.127C636.345 140.867 636.147 144.603 635.759 148.323C649.784 158.265 661.215 171.439 669.089 186.734C676.963 202.029 681.048 218.996 681 236.203Z" fill="#6C63FF"/>
<path opacity="0.2" d="M140.284 69.2578V81.389H128.973C132.517 77.224 136.287 73.1803 140.284 69.2578Z" fill="#6C63FF"/>
<path opacity="0.2" d="M161.041 66.1818H145.855V81.389H161.041V66.1818Z" fill="#6C63FF"/>
<path opacity="0.2" d="M181.792 66.1818H166.607V81.389H181.792V66.1818Z" fill="#6C63FF"/>
<path opacity="0.2" d="M202.55 66.1818H187.364V81.389H202.55V66.1818Z" fill="#6C63FF"/>
<path opacity="0.2" d="M223.301 66.1818H208.116V81.389H223.301V66.1818Z" fill="#6C63FF"/>
<path opacity="0.2" d="M244.059 66.1818H228.873V81.389H244.059V66.1818Z" fill="#6C63FF"/>
<path d="M264.816 66.1818H249.631V81.389H264.816V66.1818Z" fill="#6C63FF"/>
<path opacity="0.2" d="M285.568 66.1818H270.382V81.389H285.568V66.1818Z" fill="#6C63FF"/>
<path opacity="0.2" d="M306.325 66.1818H291.139V81.389H306.325V66.1818Z" fill="#6C63FF"/>
<path opacity="0.2" d="M327.076 66.1818H311.891V81.389H327.076V66.1818Z" fill="#6C63FF"/>
<path d="M347.834 66.1818H332.648V81.389H347.834V66.1818Z" fill="#6C63FF"/>
<path opacity="0.2" d="M368.591 66.1818H353.406V81.389H368.591V66.1818Z" fill="#6C63FF"/>
<path opacity="0.2" d="M389.343 66.1818H374.157V81.389H389.343V66.1818Z" fill="#6C63FF"/>
<path opacity="0.2" d="M410.1 66.1818H394.915V81.389H410.1V66.1818Z" fill="#6C63FF"/>
<path opacity="0.2" d="M430.857 66.1818H415.672V81.389H430.857V66.1818Z" fill="#6C63FF"/>
<path opacity="0.2" d="M451.609 66.1818H436.423V81.389H451.609V66.1818Z" fill="#6C63FF"/>
<path opacity="0.2" d="M472.366 66.1818H457.181V81.389H472.366V66.1818Z" fill="#6C63FF"/>
<path d="M493.118 66.1818H477.932V81.389H493.118V66.1818Z" fill="#6C63FF"/>
<path d="M513.875 66.1818H498.69V81.389H513.875V66.1818Z" fill="#6C63FF"/>
<path opacity="0.2" d="M534.633 66.1818H519.447V81.389H534.633V66.1818Z" fill="#6C63FF"/>
<path opacity="0.2" d="M555.384 66.1818H540.199V81.389H555.384V66.1818Z" fill="#6C63FF"/>
<path d="M576.141 66.1818H560.956V81.389H576.141V66.1818Z" fill="#6C63FF"/>
<path d="M596.893 66.1818H581.707V81.389H596.893V66.1818Z" fill="#6C63FF"/>
<path d="M119.532 93.4366V100.65H114.663C116.211 98.1937 117.834 95.7894 119.532 93.4366Z" fill="#6C63FF"/>
<path opacity="0.2" d="M140.284 85.4426H125.098V100.65H140.284V85.4426Z" fill="#6C63FF"/>
<path d="M161.041 85.4426H145.855V100.65H161.041V85.4426Z" fill="#6C63FF"/>
<path opacity="0.2" d="M181.792 85.4426H166.607V100.65H181.792V85.4426Z" fill="#6C63FF"/>
<path opacity="0.7" d="M202.55 85.4426H187.364V100.65H202.55V85.4426Z" fill="#6C63FF"/>
<path opacity="0.2" d="M223.301 85.4426H208.116V100.65H223.301V85.4426Z" fill="#6C63FF"/>
<path opacity="0.4" d="M244.059 85.4426H228.873V100.65H244.059V85.4426Z" fill="#6C63FF"/>
<path d="M264.816 85.4426H249.631V100.65H264.816V85.4426Z" fill="#6C63FF"/>
<path opacity="0.4" d="M285.568 85.4426H270.382V100.65H285.568V85.4426Z" fill="#6C63FF"/>
<path opacity="0.2" d="M306.325 85.4426H291.139V100.65H306.325V85.4426Z" fill="#6C63FF"/>
<path opacity="0.4" d="M327.076 85.4426H311.891V100.65H327.076V85.4426Z" fill="#6C63FF"/>
<path d="M347.834 85.4426H332.648V100.65H347.834V85.4426Z" fill="#6C63FF"/>
<path opacity="0.4" d="M368.591 85.4426H353.406V100.65H368.591V85.4426Z" fill="#6C63FF"/>
<path opacity="0.4" d="M389.343 85.4426H374.157V100.65H389.343V85.4426Z" fill="#6C63FF"/>
<path opacity="0.2" d="M410.1 85.4426H394.915V100.65H410.1V85.4426Z" fill="#6C63FF"/>
<path opacity="0.4" d="M430.857 85.4426H415.672V100.65H430.857V85.4426Z" fill="#6C63FF"/>
<path opacity="0.4" d="M451.609 85.4426H436.423V100.65H451.609V85.4426Z" fill="#6C63FF"/>
<path opacity="0.2" d="M472.366 85.4426H457.181V100.65H472.366V85.4426Z" fill="#6C63FF"/>
<path opacity="0.2" d="M493.118 85.4426H477.932V100.65H493.118V85.4426Z" fill="#6C63FF"/>
<path opacity="0.4" d="M513.875 85.4426H498.69V100.65H513.875V85.4426Z" fill="#6C63FF"/>
<path opacity="0.2" d="M534.633 85.4426H519.447V100.65H534.633V85.4426Z" fill="#6C63FF"/>
<path d="M555.384 85.4426H540.199V100.65H555.384V85.4426Z" fill="#6C63FF"/>
<path d="M576.141 85.4426H560.956V100.65H576.141V85.4426Z" fill="#6C63FF"/>
<path d="M596.893 85.4426H581.707V100.65H596.893V85.4426Z" fill="#6C63FF"/>
<path opacity="0.2" d="M78.0174 109.288V119.917H62.8318V114.724C67.7453 112.521 72.8225 110.703 78.0174 109.288Z" fill="#6C63FF"/>
<path opacity="0.2" d="M98.7748 105.854V119.917H83.5892V107.94L98.7748 105.854Z" fill="#6C63FF"/>
<path d="M119.526 104.709H104.341V119.917H119.526V104.709Z" fill="#6C63FF"/>
<path opacity="0.7" d="M140.284 104.709H125.098V119.917H140.284V104.709Z" fill="#6C63FF"/>
<path d="M161.041 104.709H145.855V119.917H161.041V104.709Z" fill="#6C63FF"/>
<path opacity="0.7" d="M181.792 104.709H166.607V119.917H181.792V104.709Z" fill="#6C63FF"/>
<path opacity="0.7" d="M202.55 104.709H187.364V119.917H202.55V104.709Z" fill="#6C63FF"/>
<path opacity="0.2" d="M223.301 104.709H208.116V119.917H223.301V104.709Z" fill="#6C63FF"/>
<path opacity="0.4" d="M244.059 104.709H228.873V119.917H244.059V104.709Z" fill="#6C63FF"/>
<path opacity="0.4" d="M264.816 104.709H249.631V119.917H264.816V104.709Z" fill="#6C63FF"/>
<path d="M285.568 104.709H270.382V119.917H285.568V104.709Z" fill="#6C63FF"/>
<path opacity="0.2" d="M306.325 104.709H291.139V119.917H306.325V104.709Z" fill="#6C63FF"/>
<path opacity="0.4" d="M327.076 104.709H311.891V119.917H327.076V104.709Z" fill="#6C63FF"/>
<path d="M347.834 104.709H332.648V119.917H347.834V104.709Z" fill="#6C63FF"/>
<path opacity="0.2" d="M368.591 104.709H353.406V119.917H368.591V104.709Z" fill="#6C63FF"/>
<path opacity="0.4" d="M389.343 104.709H374.157V119.917H389.343V104.709Z" fill="#6C63FF"/>
<path opacity="0.2" d="M410.1 104.709H394.915V119.917H410.1V104.709Z" fill="#6C63FF"/>
<path d="M430.857 104.709H415.672V119.917H430.857V104.709Z" fill="#6C63FF"/>
<path opacity="0.2" d="M451.609 104.709H436.423V119.917H451.609V104.709Z" fill="#6C63FF"/>
<path opacity="0.7" d="M472.366 104.709H457.181V119.917H472.366V104.709Z" fill="#6C63FF"/>
<path opacity="0.7" d="M493.118 104.709H477.932V119.917H493.118V104.709Z" fill="#6C63FF"/>
<path opacity="0.4" d="M513.875 104.709H498.69V119.917H513.875V104.709Z" fill="#6C63FF"/>
<path opacity="0.2" d="M534.633 104.709H519.447V119.917H534.633V104.709Z" fill="#6C63FF"/>
<path d="M555.384 104.709H540.199V119.917H555.384V104.709Z" fill="#6C63FF"/>
<path d="M576.141 104.709H560.956V119.917H576.141V104.709Z" fill="#6C63FF"/>
<path d="M596.893 104.709H581.707V119.917H596.893V104.709Z" fill="#6C63FF"/>
<path opacity="0.2" d="M78.0174 123.97H62.8318V139.177H78.0174V123.97Z" fill="#6C63FF"/>
<path opacity="0.2" d="M98.7748 123.97H83.5892V139.177H98.7748V123.97Z" fill="#6C63FF"/>
<path opacity="0.2" d="M119.526 123.97H104.341V139.177H119.526V123.97Z" fill="#6C63FF"/>
<path opacity="0.2" d="M140.284 123.97H125.098V139.177H140.284V123.97Z" fill="#6C63FF"/>
<path d="M161.041 123.97H145.855V139.177H161.041V123.97Z" fill="#6C63FF"/>
<path opacity="0.7" d="M181.792 123.97H166.607V139.177H181.792V123.97Z" fill="#6C63FF"/>
<path opacity="0.7" d="M202.55 123.97H187.364V139.177H202.55V123.97Z" fill="#6C63FF"/>
<path opacity="0.2" d="M223.301 123.97H208.116V139.177H223.301V123.97Z" fill="#6C63FF"/>
<path opacity="0.2" d="M244.059 123.97H228.873V139.177H244.059V123.97Z" fill="#6C63FF"/>
<path opacity="0.4" d="M264.816 123.97H249.631V139.177H264.816V123.97Z" fill="#6C63FF"/>
<path opacity="0.4" d="M285.568 123.97H270.382V139.177H285.568V123.97Z" fill="#6C63FF"/>
<path d="M306.325 123.97H291.139V139.177H306.325V123.97Z" fill="#6C63FF"/>
<path opacity="0.2" d="M327.076 123.97H311.891V139.177H327.076V123.97Z" fill="#6C63FF"/>
<path opacity="0.4" d="M347.834 123.97H332.648V139.177H347.834V123.97Z" fill="#6C63FF"/>
<path opacity="0.4" d="M368.591 123.97H353.406V139.177H368.591V123.97Z" fill="#6C63FF"/>
<path opacity="0.4" d="M389.343 123.97H374.157V139.177H389.343V123.97Z" fill="#6C63FF"/>
<path opacity="0.4" d="M410.1 123.97H394.915V139.177H410.1V123.97Z" fill="#6C63FF"/>
<path opacity="0.2" d="M430.857 123.97H415.672V139.177H430.857V123.97Z" fill="#6C63FF"/>
<path opacity="0.2" d="M451.609 123.97H436.423V139.177H451.609V123.97Z" fill="#6C63FF"/>
<path opacity="0.2" d="M472.366 123.97H457.181V139.177H472.366V123.97Z" fill="#6C63FF"/>
<path opacity="0.2" d="M493.118 123.97H477.932V139.177H493.118V123.97Z" fill="#6C63FF"/>
<path opacity="0.7" d="M513.875 123.97H498.69V139.177H513.875V123.97Z" fill="#6C63FF"/>
<path opacity="0.7" d="M534.633 123.97H519.447V139.177H534.633V123.97Z" fill="#6C63FF"/>
<path opacity="0.4" d="M555.384 123.97H540.199V139.177H555.384V123.97Z" fill="#6C63FF"/>
<path opacity="0.2" d="M576.141 123.97H560.956V139.177H576.141V123.97Z" fill="#6C63FF"/>
<path d="M596.893 123.97H581.707V139.177H596.893V123.97Z" fill="#6C63FF"/>
<path opacity="0.2" d="M78.0174 143.237H62.8318V158.444H78.0174V143.237Z" fill="#6C63FF"/>
<path opacity="0.2" d="M98.7748 143.237H83.5892V158.444H98.7748V143.237Z" fill="#6C63FF"/>
<path opacity="0.4" d="M119.526 143.237H104.341V158.444H119.526V143.237Z" fill="#6C63FF"/>
<path opacity="0.2" d="M140.284 143.237H125.098V158.444H140.284V143.237Z" fill="#6C63FF"/>
<path opacity="0.2" d="M161.041 143.237H145.855V158.444H161.041V143.237Z" fill="#6C63FF"/>
<path opacity="0.7" d="M181.792 143.237H166.607V158.444H181.792V143.237Z" fill="#6C63FF"/>
<path opacity="0.7" d="M202.55 143.237H187.364V158.444H202.55V143.237Z" fill="#6C63FF"/>
<path opacity="0.2" d="M223.301 143.237H208.116V158.444H223.301V143.237Z" fill="#6C63FF"/>
<path opacity="0.2" d="M244.059 143.237H228.873V158.444H244.059V143.237Z" fill="#6C63FF"/>
<path opacity="0.4" d="M264.816 143.237H249.631V158.444H264.816V143.237Z" fill="#6C63FF"/>
<path d="M285.568 143.237H270.382V158.444H285.568V143.237Z" fill="#6C63FF"/>
<path opacity="0.2" d="M306.325 143.237H291.139V158.444H306.325V143.237Z" fill="#6C63FF"/>
<path d="M327.076 143.237H311.891V158.444H327.076V143.237Z" fill="#6C63FF"/>
<path d="M347.834 143.237H332.648V158.444H347.834V143.237Z" fill="#6C63FF"/>
<path d="M368.591 143.237H353.406V158.444H368.591V143.237Z" fill="#6C63FF"/>
<path opacity="0.2" d="M389.343 143.237H374.157V158.444H389.343V143.237Z" fill="#6C63FF"/>
<path d="M410.1 143.237H394.915V158.444H410.1V143.237Z" fill="#6C63FF"/>
<path opacity="0.2" d="M430.857 143.237H415.672V158.444H430.857V143.237Z" fill="#6C63FF"/>
<path opacity="0.2" d="M451.609 143.237H436.423V158.444H451.609V143.237Z" fill="#6C63FF"/>
<path opacity="0.2" d="M472.366 143.237H457.181V158.444H472.366V143.237Z" fill="#6C63FF"/>
<path opacity="0.2" d="M493.118 143.237H477.932V158.444H493.118V143.237Z" fill="#6C63FF"/>
<path opacity="0.2" d="M513.875 143.237H498.69V158.444H513.875V143.237Z" fill="#6C63FF"/>
<path opacity="0.7" d="M534.633 143.237H519.447V158.444H534.633V143.237Z" fill="#6C63FF"/>
<path opacity="0.2" d="M555.384 143.237H540.199V158.444H555.384V143.237Z" fill="#6C63FF"/>
<path opacity="0.2" d="M576.141 143.237H560.956V158.444H576.141V143.237Z" fill="#6C63FF"/>
<path d="M596.893 143.237H581.707V158.444H596.893V143.237Z" fill="#6C63FF"/>
<path opacity="0.2" d="M78.0174 162.498H62.8318V177.705H78.0174V162.498Z" fill="#6C63FF"/>
<path opacity="0.2" d="M98.7748 162.498H83.5892V177.705H98.7748V162.498Z" fill="#6C63FF"/>
<path opacity="0.2" d="M119.526 162.498H104.341V177.705H119.526V162.498Z" fill="#6C63FF"/>
<path opacity="0.4" d="M140.284 162.498H125.098V177.705H140.284V162.498Z" fill="#6C63FF"/>
<path opacity="0.2" d="M161.041 162.498H145.855V177.705H161.041V162.498Z" fill="#6C63FF"/>
<path opacity="0.2" d="M181.792 162.498H166.607V177.705H181.792V162.498Z" fill="#6C63FF"/>
<path opacity="0.7" d="M202.55 162.498H187.364V177.705H202.55V162.498Z" fill="#6C63FF"/>
<path opacity="0.2" d="M223.301 162.498H208.116V177.705H223.301V162.498Z" fill="#6C63FF"/>
<path opacity="0.2" d="M244.059 162.498H228.873V177.705H244.059V162.498Z" fill="#6C63FF"/>
<path opacity="0.2" d="M264.816 162.498H249.631V177.705H264.816V162.498Z" fill="#6C63FF"/>
<path d="M285.568 162.498H270.382V177.705H285.568V162.498Z" fill="#6C63FF"/>
<path opacity="0.2" d="M306.325 162.498H291.139V177.705H306.325V162.498Z" fill="#6C63FF"/>
<path d="M327.076 162.498H311.891V177.705H327.076V162.498Z" fill="#6C63FF"/>
<path d="M347.834 162.498H332.648V177.705H347.834V162.498Z" fill="#6C63FF"/>
<path opacity="0.2" d="M368.591 162.498H353.406V177.705H368.591V162.498Z" fill="#6C63FF"/>
<path opacity="0.2" d="M389.343 162.498H374.157V177.705H389.343V162.498Z" fill="#6C63FF"/>
<path opacity="0.2" d="M410.1 162.498H394.915V177.705H410.1V162.498Z" fill="#6C63FF"/>
<path opacity="0.2" d="M430.857 162.498H415.672V177.705H430.857V162.498Z" fill="#6C63FF"/>
<path opacity="0.2" d="M451.609 162.498H436.423V177.705H451.609V162.498Z" fill="#6C63FF"/>
<path opacity="0.2" d="M472.366 162.498H457.181V177.705H472.366V162.498Z" fill="#6C63FF"/>
<path opacity="0.2" d="M493.118 162.498H477.932V177.705H493.118V162.498Z" fill="#6C63FF"/>
<path opacity="0.2" d="M513.875 162.498H498.69V177.705H513.875V162.498Z" fill="#6C63FF"/>
<path opacity="0.2" d="M534.633 162.498H519.447V177.705H534.633V162.498Z" fill="#6C63FF"/>
<path opacity="0.2" d="M555.384 162.498H540.199V177.705H555.384V162.498Z" fill="#6C63FF"/>
<path opacity="0.4" d="M576.141 162.498H560.956V177.705H576.141V162.498Z" fill="#6C63FF"/>
<path d="M596.893 162.498H581.707V177.705H596.893V162.498Z" fill="#6C63FF"/>
<path opacity="0.7" d="M78.0174 181.765H62.8318V196.972H78.0174V181.765Z" fill="#6C63FF"/>
<path opacity="0.7" d="M98.7748 181.765H83.5892V196.972H98.7748V181.765Z" fill="#6C63FF"/>
<path opacity="0.7" d="M119.526 181.765H104.341V196.972H119.526V181.765Z" fill="#6C63FF"/>
<path opacity="0.7" d="M140.284 181.765H125.098V196.972H140.284V181.765Z" fill="#6C63FF"/>
<path opacity="0.7" d="M161.041 181.765H145.855V196.972H161.041V181.765Z" fill="#6C63FF"/>
<path opacity="0.2" d="M181.792 181.765H166.607V196.972H181.792V181.765Z" fill="#6C63FF"/>
<path opacity="0.2" d="M202.55 181.765H187.364V196.972H202.55V181.765Z" fill="#6C63FF"/>
<path opacity="0.2" d="M223.301 181.765H208.116V196.972H223.301V181.765Z" fill="#6C63FF"/>
<path opacity="0.2" d="M244.059 181.765H228.873V196.972H244.059V181.765Z" fill="#6C63FF"/>
<path opacity="0.2" d="M264.816 181.765H249.631V196.972H264.816V181.765Z" fill="#6C63FF"/>
<path opacity="0.2" d="M285.568 181.765H270.382V196.972H285.568V181.765Z" fill="#6C63FF"/>
<path d="M306.325 181.765H291.139V196.972H306.325V181.765Z" fill="#6C63FF"/>
<path opacity="0.2" d="M327.076 181.765H311.891V196.972H327.076V181.765Z" fill="#6C63FF"/>
<path opacity="0.2" d="M347.834 181.765H332.648V196.972H347.834V181.765Z" fill="#6C63FF"/>
<path opacity="0.2" d="M368.591 181.765H353.406V196.972H368.591V181.765Z" fill="#6C63FF"/>
<path d="M389.343 181.765H374.157V196.972H389.343V181.765Z" fill="#6C63FF"/>
<path opacity="0.2" d="M410.1 181.765H394.915V196.972H410.1V181.765Z" fill="#6C63FF"/>
<path opacity="0.2" d="M430.857 181.765H415.672V196.972H430.857V181.765Z" fill="#6C63FF"/>
<path opacity="0.2" d="M451.609 181.765H436.423V196.972H451.609V181.765Z" fill="#6C63FF"/>
<path opacity="0.2" d="M472.366 181.765H457.181V196.972H472.366V181.765Z" fill="#6C63FF"/>
<path opacity="0.2" d="M493.118 181.765H477.932V196.972H493.118V181.765Z" fill="#6C63FF"/>
<path opacity="0.2" d="M513.875 181.765H498.69V196.972H513.875V181.765Z" fill="#6C63FF"/>
<path opacity="0.2" d="M534.633 181.765H519.447V196.972H534.633V181.765Z" fill="#6C63FF"/>
<path opacity="0.2" d="M555.384 181.765H540.199V196.972H555.384V181.765Z" fill="#6C63FF"/>
<path opacity="0.2" d="M576.141 181.765H560.956V196.972H576.141V181.765Z" fill="#6C63FF"/>
<path d="M596.893 181.765H581.707V196.972H596.893V181.765Z" fill="#6C63FF"/>
<path d="M437.245 237.711C448.709 237.711 458.002 228.404 458.002 216.924C458.002 205.444 448.709 196.137 437.245 196.137C425.781 196.137 416.488 205.444 416.488 216.924C416.488 228.404 425.781 237.711 437.245 237.711Z" fill="#767D9F"/>
<path d="M436.167 190.48C438.239 199.533 439.997 208.654 441.442 217.842C441.876 220.572 442.263 223.452 441.275 226.033C440.447 228.185 438.763 229.866 437.441 231.75C436.12 233.633 435.12 236.048 435.923 238.206C436.727 240.364 439.072 241.544 441.311 242.152C447.716 243.881 454.544 242.623 460.919 240.751C463.806 240.007 466.573 238.859 469.14 237.341C471.842 235.624 474.057 233.24 476.093 230.784C485.385 219.499 491.469 205.955 497.195 192.495C493.516 192.83 489.809 192.284 486.382 190.901C482.955 189.518 479.905 187.339 477.486 184.542C475.14 181.782 473.42 177.937 474.742 174.563C470.866 176.692 466.265 176.835 462.092 178.289C459.504 179.279 457.013 180.506 454.651 181.955C451.801 183.605 448.968 185.286 446.15 186.999C442.93 188.942 439.912 190.671 436.167 190.48Z" fill="#DCA087"/>
<path d="M479.581 206.086C475.944 213.174 471.211 219.988 464.455 224.209C457.699 228.429 448.603 229.574 441.834 225.401C438.501 223.362 435.977 220.262 433.066 217.651C430.155 215.04 426.518 212.805 422.607 213.145C418.297 213.52 414.922 216.888 412.035 220.113C407.654 225.013 403.421 230.122 400.32 235.922C394.367 247.07 392.956 260.101 393.218 272.739C393.48 285.377 395.307 297.949 395.349 310.587C395.409 326.134 392.777 341.556 390.117 356.87C414.583 353.854 439.078 360.447 463.598 362.945C479.289 364.56 495.1 364.525 510.875 364.483C513.649 364.483 516.602 364.411 518.911 362.873C520.323 361.842 521.465 360.484 522.239 358.915C524.418 354.891 525.293 350.301 525.9 345.765C527.442 334.307 527.489 322.706 527.531 311.142C527.638 283.124 527.739 255.004 524.185 227.207C523.31 220.37 522.191 213.496 519.572 207.1C516.953 200.703 512.679 194.82 506.702 191.392C502.863 189.186 493.963 185.347 489.439 187.571C484.361 190.051 482.016 201.341 479.581 206.086Z" fill="#767D9F"/>
<path d="M481.391 285.204C480.468 267.917 476.712 249.466 484.707 234.122C486.671 230.355 479.623 225.651 481.802 222.003C484.46 217.555 486.477 212.752 487.79 207.738C488.243 206.015 488.606 204.191 488.177 202.462C487.385 199.308 484.272 197.431 481.629 195.511C478.712 193.389 477.212 186.921 476.272 183.422C475.331 179.922 483.754 184.137 487.141 182.891C491.844 181.168 497.821 182.253 502.511 184C505.131 184.966 507.976 185.049 510.768 185.121C516.191 185.264 521.632 185.401 527.013 184.733C529.43 184.429 531.853 183.97 534.281 184.107C540.478 184.459 545.866 188.703 549.533 193.723C553.199 198.742 555.533 204.59 558.539 210.027C561.045 214.557 564.034 218.838 566.171 223.553C568.064 227.726 569.26 232.209 570.445 236.668L573.498 248.107C574.033 249.744 574.286 251.459 574.248 253.18C574.094 255.01 573.284 256.715 572.463 258.343C569.356 264.375 565.632 270.067 561.349 275.326C554.926 283.213 547.128 290.325 543.312 299.768C541.824 303.446 540.996 307.356 540.24 311.255C537.192 326.848 535.026 342.601 533.752 358.438C526.796 355.215 519.505 352.774 512.012 351.159C508.277 350.359 504.501 349.762 500.702 349.371C497.374 349.025 493.082 349.681 489.915 348.775C484.617 347.267 484.034 338.295 483.23 333.598C481.945 326.116 481.689 318.504 481.641 310.945C481.581 302.349 481.849 293.77 481.391 285.204Z" fill="#4C4981"/>
<path d="M365.043 252.876C367.549 267.183 370.312 281.532 375.758 294.975C375.621 295.106 375.485 295.225 375.348 295.344C374.865 295.756 374.365 296.143 373.842 296.537C372.621 297.395 371.282 298.122 370.27 299.243C369.887 299.672 369.584 300.167 369.377 300.703C369.19 301.123 369.093 301.577 369.093 302.036C369.093 302.495 369.19 302.949 369.377 303.368C366.538 304.626 363.24 304.238 360.055 304.119C357.311 304.018 354.65 304.119 352.447 305.627C349.388 307.738 348.465 311.791 347.971 315.475C347.788 316.819 347.631 318.164 347.5 319.511C347.373 320.763 347.27 322.019 347.191 323.279C346.921 327.446 346.883 331.626 347.078 335.797C347.11 336.56 347.151 337.323 347.203 338.086C337.476 337.854 328.612 332.775 320.225 327.839C318.308 326.712 316.332 325.526 315.088 323.666C313.941 321.84 313.456 319.674 313.712 317.532C313.712 317.228 313.766 316.936 313.808 316.626C314.074 314.857 314.531 313.122 315.171 311.452C317.795 304.336 321.663 297.746 326.594 291.988C328.725 289.496 331.124 287.058 332.118 283.928C332.553 282.563 332.714 281.115 333.154 279.756C335.131 273.866 342.262 271.082 344.703 265.365C345.298 264 345.572 262.504 346.31 261.192C346.974 260.102 347.832 259.143 348.84 258.361C349.274 257.997 349.727 257.645 350.173 257.294C354.356 254.011 358.386 250.543 362.263 246.891C362.986 246.212 363.7 245.524 364.406 244.829C364.312 247.527 364.526 250.227 365.043 252.876Z" fill="#4C4981"/>
<path d="M425.03 210.563C424.172 211.469 423.244 212.322 422.333 213.168L422.089 213.389L421.125 214.283C419.374 215.796 417.86 217.562 416.63 219.523L416.529 219.69C413.493 225.133 414.618 231.833 415.464 238.015C416.512 245.718 416.984 253.49 416.874 261.264C416.72 271.994 415.458 282.653 415.434 293.371C415.434 295.803 415.487 298.229 415.595 300.662C415.767 304.614 416.065 308.56 416.422 312.507C416.809 316.835 417.273 321.156 417.708 325.478C418.053 328.823 418.38 332.161 418.654 335.499C418.791 337.228 418.922 338.951 419.029 340.68C419.154 342.706 419.255 344.739 419.315 346.766C419.357 348.054 419.38 349.335 419.38 350.623C419.38 351.356 419.38 352.083 419.38 352.811C419.38 354.206 419.343 355.597 419.267 356.984C419.188 358.768 419.067 360.556 418.904 362.349C418.72 364.298 418.392 366.426 417.023 367.797C416.94 367.881 416.851 367.958 416.761 368.036L414.833 367.797C401.537 366.203 388.114 365.964 374.77 367.082C375.062 365.067 375.33 363.058 375.592 361.037C375.711 360.083 375.83 359.124 375.943 358.164C376.074 357.067 376.199 355.97 376.318 354.873C376.455 353.681 376.58 352.489 376.699 351.297C377.008 348.225 377.28 345.15 377.514 342.074C377.86 337.588 378.122 333.093 378.3 328.59C378.388 326.44 378.455 324.288 378.503 322.134C378.57 319.463 378.602 316.791 378.598 314.116C378.598 311.517 378.576 308.914 378.532 306.307C378.532 305.449 378.497 304.59 378.425 303.738C378.374 302.97 378.269 302.207 378.11 301.455C377.668 299.719 377.07 298.027 376.324 296.399C376.193 296.089 376.068 295.803 375.943 295.475C375.871 295.314 375.806 295.148 375.741 294.987C379.169 291.928 381.61 287.833 383.955 283.803C387.759 277.311 391.652 270.534 392.289 263.034C392.926 255.535 389.206 247.112 382.05 244.823C380.104 244.227 378.044 244.06 376.038 243.708C374.145 243.374 370.198 242.617 368.008 241.258C366.817 242.482 365.627 243.684 364.436 244.864C364.508 243.063 364.948 241.296 365.728 239.672L366.573 239.714C366.504 239.523 366.472 239.321 366.478 239.118C366.478 238.48 366.918 237.759 367.859 236.96C370.663 234.575 375.074 234.045 376.842 230.82C377.58 229.478 377.705 227.881 378.3 226.474C380.009 222.462 384.914 220.984 387.866 217.776C390.819 214.569 391.557 210.027 393.944 206.45C395.727 203.838 398.201 201.774 401.088 200.489C401.326 200.376 401.57 200.262 401.814 200.161C406.755 198.045 412.624 197.562 417.743 197.574C419.732 197.574 424.887 197.633 427.411 198.641C427.82 198.787 428.195 199.017 428.512 199.314C431.203 202.247 427.018 208.441 425.03 210.563Z" fill="#4C4981"/>
<path d="M365.93 239.255C370.529 237.869 375.357 237.411 380.133 237.91C384.91 238.408 389.539 239.852 393.754 242.158C398.04 244.542 401.885 247.869 404.243 252.161C407.785 258.599 407.63 266.361 407.38 273.711C407.255 277.389 407.094 281.198 405.475 284.501C403.6 288.322 400.064 290.945 396.456 293.091C394.196 294.535 391.721 295.607 389.122 296.268C385.122 297.139 380.967 296.399 376.937 295.672C372.556 294.861 367.853 293.884 364.811 290.617C363.025 288.721 362.049 286.259 361.085 283.851C359.7 280.374 358.311 276.9 356.918 273.431C354.507 267.404 353.691 262.39 356.876 256.519C358.323 253.842 360.091 251.338 361.519 248.644C362.234 247.273 364.793 239.607 365.93 239.255Z" fill="#4C4981"/>
<path d="M616.114 342.307V360.131C603.904 365.211 590.805 367.805 577.582 367.762H417.041C416.958 367.845 416.868 367.922 416.779 368L414.85 367.762H129.277C105.317 367.762 83.113 361.288 64.9034 350.259V323.046L202.246 307.171H202.353L282.335 313.955L303.033 315.744L313.784 316.656L336.035 318.545L347.483 319.517L364.15 320.936L366.496 321.133L378.509 322.152L394.807 323.493L417.726 325.437L455.931 328.686L482.808 330.969L526.942 334.718L535.335 335.428L536.24 335.505L537.026 335.571L548.11 336.513L560.277 337.55L561.688 337.669L616.114 342.307Z" fill="#504F60"/>
<path d="M454.794 341.651L282.675 312.232L276.001 346.027L354.9 355.487L379.193 358.534L446.019 345.353L454.794 341.651Z" fill="#9C9CA1"/>
<path d="M365.698 356.841L451.93 340.608C452.362 340.525 452.806 340.539 453.232 340.649C453.657 340.758 454.053 340.961 454.391 341.242C454.729 341.523 455.001 341.875 455.187 342.274C455.373 342.672 455.468 343.107 455.466 343.547C455.468 344.245 455.226 344.921 454.781 345.458C454.336 345.995 453.717 346.359 453.032 346.486L368.818 362.277L365.698 356.841Z" fill="#9C9CA1"/>
<path d="M403.106 305.794C405.79 305.544 408.511 305.121 410.928 303.928C413.904 302.444 416.22 299.887 418.976 298.003C425.036 293.83 433.143 293.27 440.09 295.666C447.037 298.063 452.835 303.195 456.895 309.323C459.592 313.407 461.616 318.617 459.711 323.124C459.057 324.501 458.233 325.791 457.258 326.963L452.294 333.46C451.35 334.826 450.216 336.049 448.924 337.091C447.067 338.444 444.757 338.999 442.483 339.332C436.441 340.215 430.292 339.714 424.202 340.119C413.743 340.817 403.528 344.191 393.045 344.078C387.021 344.012 381.074 342.796 375.187 341.58L349.132 336.215C344.596 335.285 339.47 333.925 337.333 329.806C336.375 327.952 336.196 325.806 336.083 323.72C335.774 317.973 336.083 311.583 340.06 307.44C343.798 303.553 349.709 302.325 354.174 299.452C359.638 295.928 361.442 297.067 367.204 299.714C378.446 304.812 390.815 306.907 403.106 305.794Z" fill="#DCA087"/>
<path opacity="0.05" d="M403.106 305.794C405.79 305.544 408.511 305.121 410.928 303.928C413.904 302.444 416.22 299.887 418.976 298.003C425.036 293.83 433.143 293.27 440.09 295.666C447.037 298.063 452.835 303.195 456.895 309.323C459.592 313.407 461.616 318.617 459.711 323.124C459.057 324.501 458.233 325.791 457.258 326.963L452.294 333.46C451.35 334.826 450.216 336.049 448.924 337.091C447.067 338.444 444.757 338.999 442.483 339.332C436.441 340.215 430.292 339.714 424.202 340.119C413.743 340.817 403.528 344.191 393.045 344.078C387.021 344.012 381.074 342.796 375.187 341.58L349.132 336.215C344.596 335.285 339.47 333.925 337.333 329.806C336.375 327.952 336.196 325.806 336.083 323.72C335.774 317.973 336.083 311.583 340.06 307.44C343.798 303.553 349.709 302.325 354.174 299.452C359.638 295.928 361.442 297.067 367.204 299.714C378.446 304.812 390.815 306.907 403.106 305.794Z" fill="black"/>
<path d="M507.738 297.621C500.428 300.453 493.076 303.297 485.421 304.984C472.587 307.815 459.157 307.368 446.424 310.605C439.697 312.322 433.012 315.088 426.101 314.528C423.012 314.277 420.029 313.335 417.023 312.62C400.135 308.447 380.937 309.8 367.222 320.531C362.531 324.197 358.692 328.769 355.209 333.645C354.464 334.699 353.961 335.904 353.735 337.174C353.508 338.445 353.566 339.75 353.902 340.996C354.238 342.243 354.845 343.399 355.679 344.383C356.513 345.367 357.554 346.154 358.728 346.689C364.061 349.145 369.775 350.671 375.622 351.201C383.438 351.893 391.289 350.784 399.064 349.675C410.6 348.036 422.143 346.39 433.649 344.548C437.781 343.887 441.912 343.201 446.067 342.677C475.968 338.891 506.41 343.493 536.389 340.334C539.419 340.012 542.502 339.595 545.258 338.301C552.235 335.022 555.688 326.379 554.247 318.784C552.807 311.189 547.247 304.876 540.556 301.002C534.948 297.741 528.9 296.423 522.656 295.04C516.858 293.687 513.322 295.475 507.738 297.621Z" fill="#DCA087"/>
<path opacity="0.1" d="M571.867 252.221C575.165 256.548 575.868 262.355 575.511 267.773C575.153 273.192 573.868 278.551 573.677 283.994C573.415 291.458 575.213 298.897 574.909 306.337C574.695 311.541 573.463 316.644 572.004 321.639C570.284 327.535 567.796 333.872 562.361 336.703C555.146 340.465 540.014 338.349 532.424 341.294C533.115 336.984 539.734 330.742 540.425 326.432C540.901 323.452 541.383 320.387 540.871 317.401C540.216 313.592 537.984 310.212 535.335 307.398C531.12 302.921 525.62 299.553 519.578 298.456C513.536 297.359 498.743 298.259 493.91 302.08C493.314 298.134 504.386 294.331 508.28 293.478C510.22 293.043 512.447 293.288 514 292.054C516.977 289.717 514.816 285.061 514.959 281.323C515.072 278.343 516.81 275.613 517.161 272.632C517.756 267.863 514.649 263.004 515.869 258.325C516.322 256.596 517.328 255.076 518.024 253.431C520.143 248.393 519.215 242.647 518.084 237.294C517.381 233.931 516.697 230.14 518.566 227.273C520.298 224.596 525.215 234.128 528.364 233.687C538.764 232.227 548.175 224.507 556.575 230.826C560.855 234.045 561.414 237.383 563.123 241.979C564.784 246.355 569.087 248.596 571.867 252.221Z" fill="black"/>
<path d="M573.653 252.221C576.951 256.548 577.653 262.355 577.296 267.773C576.939 273.192 575.653 278.551 575.463 283.994C575.201 291.458 576.999 298.897 576.695 306.337C576.481 311.541 575.249 316.644 573.79 321.639C572.07 327.535 569.581 333.872 564.147 336.703C556.932 340.465 541.8 338.349 534.21 341.294C534.9 336.984 541.52 330.742 542.21 326.432C542.687 323.452 543.169 320.388 542.657 317.401C542.002 313.592 539.77 310.212 537.121 307.398C532.906 302.921 527.406 299.553 521.364 298.456C515.322 297.359 500.529 298.259 495.695 302.08C495.1 298.134 506.172 294.331 510.065 293.478C512.006 293.043 514.232 293.288 515.786 292.054C518.762 289.717 516.602 285.061 516.744 281.323C516.858 278.343 518.596 275.613 518.947 272.632C519.542 267.863 516.435 263.004 517.655 258.325C518.108 256.596 519.114 255.076 519.81 253.431C521.929 248.393 521.001 242.647 519.87 237.294C519.167 233.931 518.483 230.14 520.352 227.273C522.084 224.596 525.471 223.583 528.62 223.136C539.164 221.707 549.847 224.468 558.384 230.826C562.664 234.045 563.224 237.383 564.932 241.979C566.569 246.355 570.873 248.596 573.653 252.221Z" fill="#4C4981"/>
<path d="M179.774 223.976L212.14 343.762C212.537 345.229 213.371 346.541 214.531 347.522C215.692 348.503 217.123 349.106 218.634 349.252L364.311 363.267C365.498 363.381 366.696 363.209 367.803 362.765C368.91 362.321 369.895 361.618 370.675 360.714C371.455 359.811 372.008 358.733 372.286 357.571C372.565 356.41 372.561 355.199 372.276 354.039L336.833 209.55C336.411 207.832 335.395 206.32 333.965 205.282C332.535 204.244 330.784 203.748 329.023 203.881L186.4 214.563C185.305 214.649 184.242 214.975 183.287 215.519C182.333 216.062 181.51 216.81 180.877 217.709C180.244 218.608 179.817 219.636 179.627 220.719C179.436 221.803 179.487 222.915 179.774 223.976Z" fill="#9C9CA1"/>
<path d="M468.551 247.35C477.394 247.35 484.564 240.077 484.564 231.106C484.564 222.134 477.394 214.861 468.551 214.861C459.707 214.861 452.538 222.134 452.538 231.106C452.538 240.077 459.707 247.35 468.551 247.35Z" fill="#FCFCFC"/>
<path d="M481.7 201.472C481.7 201.472 485.076 211.523 475.117 215.75L473.843 217.979L480.081 224.143C480.081 224.143 487.772 210.092 486.939 205.103C486.939 205.103 485.748 200.036 481.7 201.472Z" fill="#FCFCFC"/>
<path d="M470.39 247.35C478.918 247.35 485.832 240.427 485.832 231.887C485.832 223.346 478.918 216.423 470.39 216.423C461.862 216.423 454.948 223.346 454.948 231.887C454.948 240.427 461.862 247.35 470.39 247.35Z" fill="#6C63FF"/>
<path d="M487.016 207.386L484.564 203.332L480.992 202.826C481.754 189.478 478.295 185.502 478.295 185.502L477.492 185.425L473.992 185.085L467.408 178.241V176.298C476.658 177.401 481.772 181.8 484.534 186.957C489.415 196.006 487.016 207.386 487.016 207.386Z" fill="#6C63FF"/>
<path opacity="0.1" d="M477.521 182.969V185.425L474.021 185.085L467.438 178.241C467.438 178.241 477.623 180.525 477.521 182.969Z" fill="black" stroke="#4C4981" stroke-miterlimit="10"/>
<path opacity="0.1" d="M487.016 207.386L484.564 203.332V186.981C489.415 196.006 487.016 207.386 487.016 207.386Z" fill="black" stroke="#4C4981" stroke-miterlimit="10"/>
<path d="M441.856 238.243C445.965 235.868 445.788 227.859 441.461 220.354C437.135 212.85 430.297 208.692 426.188 211.067C422.08 213.443 422.257 221.452 426.583 228.956C430.91 236.461 437.748 240.619 441.856 238.243Z" fill="#FCFCFC"/>
<path d="M436.34 223.344C440.668 230.849 445.978 235.863 441.87 238.247C437.763 240.632 425.798 239.44 421.47 231.928C417.142 224.417 421.071 214.045 425.179 211.66C429.286 209.276 432.006 215.821 436.34 223.344Z" fill="#6C63FF"/>
<path opacity="0.1" d="M474.872 169.276C474.872 193.258 458.484 216.37 434.536 216.37C423.035 216.37 412.005 211.794 403.872 203.65C395.739 195.506 391.17 184.46 391.17 172.942C391.17 161.424 395.739 150.378 403.872 142.234C412.005 134.09 423.035 129.514 434.536 129.514C458.484 129.538 474.872 145.288 474.872 169.276Z" fill="black"/>
<path d="M434.536 215.201C458.487 215.201 477.902 195.758 477.902 171.773C477.902 147.789 458.487 128.346 434.536 128.346C410.586 128.346 391.17 147.789 391.17 171.773C391.17 195.758 410.586 215.201 434.536 215.201Z" fill="#DCA087"/>
<path d="M430.727 152.531C435.888 154.432 438.941 159.774 443.573 162.748C450.121 166.921 458.645 165.842 466.122 163.779C470.289 162.641 474.646 161.252 478.748 162.516C479.351 162.783 480.017 162.878 480.671 162.79C481.563 162.534 482.004 161.544 482.296 160.662C487.367 145.52 485.088 128.37 477.432 114.361C475.456 110.748 473.087 107.255 469.825 104.745C467.253 102.772 464.229 101.478 461.181 100.376C455.611 98.3723 449.85 96.948 443.989 96.1252C442.954 95.9369 441.897 95.9027 440.852 96.0239C439.418 96.2563 438.132 97.0313 436.852 97.7228C431.371 100.665 425.292 102.319 419.077 102.557C410.743 102.873 401.219 100.906 394.795 106.259C387.057 112.68 388.986 125.204 383.967 133.92C380.646 139.684 374.24 143.869 373.187 150.432C372.912 152.438 373.04 154.479 373.562 156.435C376.014 166.534 385.777 174.355 396.182 174.54C397.78 174.662 399.381 174.333 400.802 173.592C401.733 172.955 402.555 172.172 403.237 171.273C410.053 163.189 417.851 147.785 430.727 152.531Z" fill="#444053"/>
<path opacity="0.1" d="M482.296 156.268C482.004 157.151 481.563 158.14 480.671 158.396C480.017 158.485 479.351 158.39 478.748 158.122C474.646 156.858 470.265 158.247 466.128 159.386C458.645 161.449 450.103 162.551 443.579 158.355C438.941 155.374 435.894 150.009 430.727 148.137C417.851 143.368 410.053 158.796 403.219 166.879C402.537 167.779 401.715 168.562 400.784 169.198C399.363 169.94 397.763 170.268 396.165 170.146C385.795 169.961 376.026 162.14 373.544 152.042C373.407 151.446 373.288 150.849 373.199 150.253C373.199 150.307 373.199 150.355 373.169 150.408C372.895 152.414 373.022 154.455 373.544 156.411C375.997 166.51 385.765 174.331 396.165 174.516C397.763 174.638 399.363 174.309 400.784 173.568C401.715 172.931 402.537 172.148 403.219 171.249C410.053 163.165 417.851 147.762 430.727 152.507C435.894 154.408 438.941 159.75 443.579 162.724C450.127 166.897 458.645 165.818 466.128 163.756C470.295 162.617 474.646 161.228 478.748 162.492C479.351 162.759 480.017 162.854 480.671 162.766C481.563 162.51 482.004 161.52 482.296 160.638C484.341 154.442 485.245 147.926 484.963 141.407C484.787 146.463 483.889 151.468 482.296 156.268Z" fill="black"/>
</g>
<defs>
<clipPath id="clip0">
<rect width="681" height="368" fill="white"/>
</clipPath>
</defs>
</svg>
