<svg width="152" height="33" viewBox="0 0 152 33" fill="none" xmlns="http://www.w3.org/2000/svg">
<path d="M5.72 21.162L1.254 16.3L5.72 11.438H10.45L5.962 16.3L10.45 21.162H5.72ZM21.8632 3.1L15.9672 28.114H12.3372L18.2332 3.1H21.8632ZM23.4719 11.438H28.2019L32.6679 16.3L28.2019 21.162H23.4719L27.9599 16.3L23.4719 11.438ZM43.8611 21.976H49.0311V24H41.3531V8.71H43.8611V21.976ZM62.1065 11.878V24H59.5985V22.57C59.2025 23.0687 58.6818 23.4647 58.0365 23.758C57.4058 24.0367 56.7312 24.176 56.0125 24.176C55.0592 24.176 54.2012 23.978 53.4385 23.582C52.6905 23.186 52.0965 22.5993 51.6565 21.822C51.2312 21.0447 51.0185 20.106 51.0185 19.006V11.878H53.5045V18.632C53.5045 19.7173 53.7758 20.5533 54.3185 21.14C54.8612 21.712 55.6018 21.998 56.5405 21.998C57.4792 21.998 58.2198 21.712 58.7625 21.14C59.3198 20.5533 59.5985 19.7173 59.5985 18.632V11.878H62.1065ZM64.5796 17.884C64.5796 16.6667 64.829 15.5887 65.3276 14.65C65.841 13.7113 66.5303 12.9853 67.3956 12.472C68.2756 11.944 69.2436 11.68 70.2996 11.68C71.253 11.68 72.0816 11.8707 72.7856 12.252C73.5043 12.6187 74.0763 13.0807 74.5016 13.638V11.878H77.0316V24H74.5016V22.196C74.0763 22.768 73.497 23.2447 72.7636 23.626C72.0303 24.0073 71.1943 24.198 70.2556 24.198C69.2143 24.198 68.261 23.934 67.3956 23.406C66.5303 22.8633 65.841 22.1153 65.3276 21.162C64.829 20.194 64.5796 19.1013 64.5796 17.884ZM74.5016 17.928C74.5016 17.092 74.3256 16.366 73.9736 15.75C73.6363 15.134 73.189 14.6647 72.6316 14.342C72.0743 14.0193 71.473 13.858 70.8276 13.858C70.1823 13.858 69.581 14.0193 69.0236 14.342C68.4663 14.65 68.0116 15.112 67.6596 15.728C67.3223 16.3293 67.1536 17.048 67.1536 17.884C67.1536 18.72 67.3223 19.4533 67.6596 20.084C68.0116 20.7147 68.4663 21.1987 69.0236 21.536C69.5956 21.8587 70.197 22.02 70.8276 22.02C71.473 22.02 72.0743 21.8587 72.6316 21.536C73.189 21.2133 73.6363 20.744 73.9736 20.128C74.3256 19.4973 74.5016 18.764 74.5016 17.928ZM86.4418 11.68C87.3951 11.68 88.2458 11.878 88.9938 12.274C89.7564 12.67 90.3504 13.2567 90.7758 14.034C91.2011 14.8113 91.4138 15.75 91.4138 16.85V24H88.9278V17.224C88.9278 16.1387 88.6564 15.31 88.1138 14.738C87.5711 14.1513 86.8304 13.858 85.8918 13.858C84.9531 13.858 84.2051 14.1513 83.6478 14.738C83.1051 15.31 82.8338 16.1387 82.8338 17.224V24H80.3258V11.878H82.8338V13.264C83.2444 12.7653 83.7651 12.3767 84.3958 12.098C85.0411 11.8193 85.7231 11.68 86.4418 11.68Z" fill="#0C0C0C"/>
<path d="M105.366 24.154C104.339 24.154 103.415 23.978 102.594 23.626C101.772 23.2593 101.127 22.746 100.658 22.086C100.188 21.426 99.9537 20.656 99.9537 19.776H102.638C102.696 20.436 102.953 20.9787 103.408 21.404C103.877 21.8293 104.53 22.042 105.366 22.042C106.231 22.042 106.906 21.8367 107.39 21.426C107.874 21.0007 108.116 20.458 108.116 19.798C108.116 19.2847 107.962 18.8667 107.654 18.544C107.36 18.2213 106.986 17.972 106.532 17.796C106.092 17.62 105.476 17.4293 104.684 17.224C103.686 16.96 102.872 16.696 102.242 16.432C101.626 16.1533 101.098 15.728 100.658 15.156C100.218 14.584 99.9977 13.8213 99.9977 12.868C99.9977 11.988 100.218 11.218 100.658 10.558C101.098 9.898 101.714 9.392 102.506 9.04C103.298 8.688 104.214 8.512 105.256 8.512C106.737 8.512 107.947 8.886 108.886 9.634C109.839 10.3673 110.367 11.3793 110.47 12.67H107.698C107.654 12.1127 107.39 11.636 106.906 11.24C106.422 10.844 105.784 10.646 104.992 10.646C104.273 10.646 103.686 10.8293 103.232 11.196C102.777 11.5627 102.55 12.0907 102.55 12.78C102.55 13.2493 102.689 13.638 102.968 13.946C103.261 14.2393 103.628 14.474 104.068 14.65C104.508 14.826 105.109 15.0167 105.872 15.222C106.884 15.5007 107.705 15.7793 108.336 16.058C108.981 16.3367 109.524 16.7693 109.964 17.356C110.418 17.928 110.646 18.698 110.646 19.666C110.646 20.4433 110.433 21.1767 110.008 21.866C109.597 22.5553 108.988 23.1127 108.182 23.538C107.39 23.9487 106.451 24.154 105.366 24.154ZM114.881 10.272C114.426 10.272 114.045 10.118 113.737 9.81C113.429 9.502 113.275 9.12067 113.275 8.666C113.275 8.21133 113.429 7.83 113.737 7.522C114.045 7.214 114.426 7.06 114.881 7.06C115.321 7.06 115.695 7.214 116.003 7.522C116.311 7.83 116.465 8.21133 116.465 8.666C116.465 9.12067 116.311 9.502 116.003 9.81C115.695 10.118 115.321 10.272 114.881 10.272ZM116.113 11.878V24H113.605V11.878H116.113ZM121.914 7.72V24H119.406V7.72H121.914ZM129.893 21.756L133.325 11.878H135.987L131.367 24H128.375L123.777 11.878H126.461L129.893 21.756ZM137.046 17.884C137.046 16.6667 137.296 15.5887 137.794 14.65C138.308 13.7113 138.997 12.9853 139.862 12.472C140.742 11.944 141.71 11.68 142.766 11.68C143.72 11.68 144.548 11.8707 145.252 12.252C145.971 12.6187 146.543 13.0807 146.968 13.638V11.878H149.498V24H146.968V22.196C146.543 22.768 145.964 23.2447 145.23 23.626C144.497 24.0073 143.661 24.198 142.722 24.198C141.681 24.198 140.728 23.934 139.862 23.406C138.997 22.8633 138.308 22.1153 137.794 21.162C137.296 20.194 137.046 19.1013 137.046 17.884ZM146.968 17.928C146.968 17.092 146.792 16.366 146.44 15.75C146.103 15.134 145.656 14.6647 145.098 14.342C144.541 14.0193 143.94 13.858 143.294 13.858C142.649 13.858 142.048 14.0193 141.49 14.342C140.933 14.65 140.478 15.112 140.126 15.728C139.789 16.3293 139.62 17.048 139.62 17.884C139.62 18.72 139.789 19.4533 140.126 20.084C140.478 20.7147 140.933 21.1987 141.49 21.536C142.062 21.8587 142.664 22.02 143.294 22.02C143.94 22.02 144.541 21.8587 145.098 21.536C145.656 21.2133 146.103 20.744 146.44 20.128C146.792 19.4973 146.968 18.764 146.968 17.928Z" fill="black"/>
</svg>
